<?xml version="1.0" standalone="no"?>
<!DOCTYPE svg PUBLIC "-//W3C//DTD SVG 20010904//EN"
 "http://www.w3.org/TR/2001/REC-SVG-20010904/DTD/svg10.dtd">
<svg version="1.0" xmlns="http://www.w3.org/2000/svg"
 width="168.000000pt" height="194.000000pt" viewBox="0 0 168.000000 194.000000"
 preserveAspectRatio="xMidYMid meet">
<g transform="translate(0.000000,194.000000) scale(0.100000,-0.100000)"
fill="#ffffff" stroke="none">
<path d="M259 1874 c-21 -58 -30 -167 -17 -229 l13 -60 -40 -60 c-60 -89 -79
-159 -77 -285 1 -120 26 -234 68 -311 34 -62 125 -149 191 -183 53 -26 164
-59 241 -71 l42 -7 -25 -29 c-13 -17 -30 -49 -36 -72 -6 -23 -13 -47 -14 -53
-4 -15 -83 -34 -142 -34 -67 0 -145 40 -180 92 -76 111 -139 157 -216 158 -48
0 -61 -25 -26 -52 82 -63 99 -83 139 -160 52 -101 70 -122 135 -156 46 -25 60
-27 168 -27 l117 0 0 -121 c0 -126 -5 -142 -50 -156 -8 -3 17 -12 57 -21 211
-49 374 -49 586 -1 55 13 67 19 52 24 -41 15 -43 28 -47 260 -4 239 -10 274
-60 327 l-20 22 38 6 c172 30 270 71 350 147 95 90 137 185 154 352 15 151
-19 292 -92 380 -24 28 -24 30 -11 94 11 50 11 82 3 133 -17 110 -22 119 -74
119 -55 0 -129 -27 -219 -79 l-67 -40 -73 16 c-50 12 -120 17 -227 17 -107 0
-177 -5 -227 -17 l-73 -16 -67 40 c-90 52 -164 79 -219 79 -39 0 -46 -3 -55
-26z"/>
</g>
</svg>
